<svg width="25" height="24" viewBox="0 0 25 24" fill="none" xmlns="http://www.w3.org/2000/svg">
<path d="M18.15 6.35001C17.3118 5.50428 16.2944 4.85762 15.1728 4.4578C14.0512 4.05798 12.8542 3.9152 11.67 4.04001C8.00001 4.41001 4.98001 7.39001 4.57001 11.06C4.02001 15.91 7.77001 20 12.5 20C14.0101 20 15.4892 19.5715 16.7655 18.7643C18.0418 17.9572 19.0628 16.8044 19.71 15.44C20.03 14.77 19.55 14 18.81 14C18.44 14 18.09 14.2 17.93 14.53C17.3494 15.779 16.3564 16.79 15.1179 17.3928C13.8795 17.9957 12.4712 18.1536 11.13 17.84C8.91001 17.35 7.12001 15.54 6.65001 13.32C6.45244 12.4423 6.45473 11.5313 6.6567 10.6546C6.85868 9.77787 7.25517 8.95776 7.81686 8.25493C8.37854 7.55211 9.09105 6.98454 9.90168 6.59423C10.7123 6.20392 11.6003 6.00084 12.5 6.00001C14.16 6.00001 15.64 6.69001 16.72 7.78001L15.21 9.29001C14.58 9.92001 15.02 11 15.91 11H19.5C20.05 11 20.5 10.55 20.5 10V6.41001C20.5 5.52001 19.42 5.07001 18.79 5.70001L18.15 6.35001Z" fill="#F2F2F2"/>
</svg>
