<svg width="12" height="20" viewBox="0 0 12 20" fill="none" xmlns="http://www.w3.org/2000/svg">
<path d="M11.4532 0.880052C11.337 0.763644 11.1991 0.671287 11.0472 0.60827C10.8954 0.545254 10.7326 0.512817 10.5682 0.512817C10.4037 0.512817 10.2409 0.545254 10.0891 0.60827C9.93721 0.671287 9.79927 0.763644 9.68316 0.880052L1.27316 9.29005C1.18045 9.38257 1.10691 9.49245 1.05672 9.61343C1.00654 9.7344 0.980713 9.86408 0.980713 9.99505C0.980713 10.126 1.00654 10.2557 1.05672 10.3767C1.10691 10.4976 1.18045 10.6075 1.27316 10.7001L9.68316 19.1101C10.1732 19.6001 10.9632 19.6001 11.4532 19.1101C11.9432 18.6201 11.9432 17.8301 11.4532 17.3401L4.11316 10.0001L11.4632 2.65005C11.9432 2.16005 11.9432 1.37005 11.4532 0.880052Z" fill="#F2F2F2"/>
</svg>
