<svg width="22" height="22" viewBox="0 0 22 22" fill="none" xmlns="http://www.w3.org/2000/svg">
<path d="M14.0518 11L10.5518 7.5M14.0518 11L10.5518 14.5M14.0518 11H5.30176M9.67676 18.875C10.7109 18.875 11.735 18.6713 12.6904 18.2756C13.6458 17.8798 14.514 17.2997 15.2452 16.5685C15.9765 15.8372 16.5566 14.9691 16.9523 14.0136C17.3481 13.0582 17.5518 12.0342 17.5518 11C17.5518 9.96584 17.3481 8.94181 16.9523 7.98637C16.5566 7.03093 15.9765 6.1628 15.2452 5.43153C14.514 4.70027 13.6458 4.1202 12.6904 3.72445C11.735 3.32869 10.7109 3.125 9.67676 3.125" stroke="#F2F2F2" stroke-width="2" stroke-linecap="round" stroke-linejoin="round"/>
</svg>
