<svg width="21" height="20" viewBox="0 0 21 20" fill="none" xmlns="http://www.w3.org/2000/svg">
<path opacity="0.5" d="M7.61905 6.66667H9.52381V12.381H7.61905V6.66667ZM11.4286 0H5.71429V1.90476H11.4286V0ZM15.2667 6.08571C16.4818 7.60131 17.1436 9.48602 17.1429 11.4286C17.1429 16.1619 13.3333 20 8.57143 20C6.29814 20 4.11797 19.0969 2.51051 17.4895C0.903059 15.882 0 13.7019 0 11.4286C0 9.15529 0.903059 6.97511 2.51051 5.36766C4.11797 3.7602 6.29814 2.85714 8.57143 2.85714C10.5905 2.85714 12.4476 3.5619 13.9238 4.7619L15.2762 3.39048C15.7619 3.80952 16.1905 4.24762 16.619 4.73333L15.2667 6.08571ZM15.2381 11.4286C15.2381 7.74286 12.2571 4.7619 8.57143 4.7619C4.88571 4.7619 1.90476 7.74286 1.90476 11.4286C1.90476 15.1143 4.88571 18.0952 8.57143 18.0952C12.2571 18.0952 15.2381 15.1143 15.2381 11.4286ZM19.0476 5.71429V11.4286H20.9524V5.71429H19.0476ZM19.0476 15.2381H20.9524V13.3333H19.0476V15.2381Z" fill="#F2F2F2"/>
<path d="M7.61905 6.6667H9.52381V12.381H7.61905V6.6667ZM15.2667 6.08575C16.4818 7.60134 17.1436 9.48605 17.1429 11.4286C17.1429 16.1619 13.3333 20 8.57143 20C6.29814 20 4.11797 19.097 2.51051 17.4895C0.903058 15.8821 0 13.7019 0 11.4286C0 9.15532 0.903058 6.97515 2.51051 5.36769C4.11797 3.76024 6.29814 2.85718 8.57143 2.85718C10.5905 2.85718 12.4476 3.56194 13.9238 4.76194L15.2762 3.39051C15.7619 3.80956 16.1905 4.24765 16.619 4.73337L15.2667 6.08575ZM15.2381 11.4286C15.2381 7.74289 12.2571 4.76194 8.57143 4.76194C4.88571 4.76194 1.90476 7.74289 1.90476 11.4286C1.90476 15.1143 4.88571 18.0953 8.57143 18.0953C12.2571 18.0953 15.2381 15.1143 15.2381 11.4286Z" fill="#F2F2F2"/>
</svg>
