<svg width="18" height="20" viewBox="0 0 18 20" fill="none" xmlns="http://www.w3.org/2000/svg">
<path opacity="0.5" d="M5.71429 1.90476V0H11.4286V1.90476H5.71429ZM7.61905 12.381H9.52381V6.66667H7.61905V12.381ZM8.57143 20C7.39682 20 6.28952 19.774 5.24952 19.3219C4.21016 18.8692 3.30159 18.254 2.52381 17.4762C1.74603 16.6984 1.13079 15.7898 0.678095 14.7505C0.226032 13.7105 0 12.6032 0 11.4286C0 10.254 0.226032 9.14667 0.678095 8.10667C1.13079 7.0673 1.74603 6.15873 2.52381 5.38095C3.30159 4.60317 4.21016 3.98825 5.24952 3.53619C6.28952 3.08349 7.39682 2.85714 8.57143 2.85714C9.55555 2.85714 10.5 3.01587 11.4048 3.33333C12.3095 3.65079 13.1587 4.11111 13.9524 4.71429L15.2857 3.38095L16.619 4.71429L15.2857 6.04762C15.8889 6.84127 16.3492 7.69048 16.6667 8.59524C16.9841 9.5 17.1429 10.4444 17.1429 11.4286C17.1429 12.6032 16.9168 13.7105 16.4648 14.7505C16.0121 15.7898 15.3968 16.6984 14.619 17.4762C13.8413 18.254 12.9327 18.8692 11.8933 19.3219C10.8533 19.774 9.74603 20 8.57143 20ZM8.57143 18.0952C10.4127 18.0952 11.9841 17.4444 13.2857 16.1429C14.5873 14.8413 15.2381 13.2698 15.2381 11.4286C15.2381 9.5873 14.5873 8.01587 13.2857 6.71429C11.9841 5.4127 10.4127 4.7619 8.57143 4.7619C6.73016 4.7619 5.15873 5.4127 3.85714 6.71429C2.55556 8.01587 1.90476 9.5873 1.90476 11.4286C1.90476 13.2698 2.55556 14.8413 3.85714 16.1429C5.15873 17.4444 6.73016 18.0952 8.57143 18.0952Z" fill="#F2F2F2"/>
<path d="M7.61905 12.381H9.52381V6.6667H7.61905V12.381ZM8.57143 20C7.39682 20 6.28952 19.774 5.24952 19.3219C4.21016 18.8692 3.30159 18.254 2.52381 17.4762C1.74603 16.6984 1.13079 15.7899 0.678095 14.7505C0.226032 13.7105 0 12.6032 0 11.4286C0 10.254 0.226032 9.1467 0.678095 8.1067C1.13079 7.06734 1.74603 6.15876 2.52381 5.38099C3.30159 4.60321 4.21016 3.98829 5.24952 3.53623C6.28952 3.08353 7.39682 2.85718 8.57143 2.85718C9.55555 2.85718 10.5 3.01591 11.4048 3.33337C12.3095 3.65083 13.1587 4.11115 13.9524 4.71432L15.2857 3.38099L16.619 4.71432L15.2857 6.04765C15.8889 6.8413 16.3492 7.69051 16.6667 8.59527C16.9841 9.50003 17.1429 10.4445 17.1429 11.4286C17.1429 12.6032 16.9168 13.7105 16.4648 14.7505C16.0121 15.7899 15.3968 16.6984 14.619 17.4762C13.8413 18.254 12.9327 18.8692 11.8933 19.3219C10.8533 19.774 9.74603 20 8.57143 20ZM8.57143 18.0953C10.4127 18.0953 11.9841 17.4445 13.2857 16.1429C14.5873 14.8413 15.2381 13.2699 15.2381 11.4286C15.2381 9.58734 14.5873 8.01591 13.2857 6.71432C11.9841 5.41273 10.4127 4.76194 8.57143 4.76194C6.73016 4.76194 5.15873 5.41273 3.85714 6.71432C2.55556 8.01591 1.90476 9.58734 1.90476 11.4286C1.90476 13.2699 2.55556 14.8413 3.85714 16.1429C5.15873 17.4445 6.73016 18.0953 8.57143 18.0953Z" fill="#F2F2F2"/>
</svg>
