<svg width="23" height="22" viewBox="0 0 23 22" fill="none" xmlns="http://www.w3.org/2000/svg">
<path d="M8.67688 2.74996V0.916626H14.1769V2.74996H8.67688ZM10.5102 12.8333H12.3435V7.33329H10.5102V12.8333ZM11.4269 20.1666C10.2963 20.1666 9.23055 19.9491 8.22955 19.514C7.22916 19.0782 6.35466 18.4861 5.60605 17.7375C4.85744 16.9888 4.26527 16.1143 3.82955 15.114C3.39444 14.113 3.17688 13.0472 3.17688 11.9166C3.17688 10.7861 3.39444 9.72029 3.82955 8.71929C4.26527 7.7189 4.85744 6.8444 5.60605 6.09579C6.35466 5.34718 7.22916 4.75532 8.22955 4.32021C9.23055 3.88449 10.2963 3.66663 11.4269 3.66663C12.3741 3.66663 13.2831 3.8194 14.154 4.12496C15.0248 4.43052 15.8422 4.87357 16.606 5.45413L17.8894 4.17079L19.1727 5.45413L17.8894 6.73746C18.4699 7.50135 18.913 8.31871 19.2185 9.18954C19.5241 10.0604 19.6769 10.9694 19.6769 11.9166C19.6769 13.0472 19.4593 14.113 19.0242 15.114C18.5885 16.1143 17.9963 16.9888 17.2477 17.7375C16.4991 18.4861 15.6246 19.0782 14.6242 19.514C13.6232 19.9491 12.5574 20.1666 11.4269 20.1666ZM11.4269 18.3333C13.1991 18.3333 14.7116 17.7069 15.9644 16.4541C17.2172 15.2013 17.8435 13.6888 17.8435 11.9166C17.8435 10.1444 17.2172 8.6319 15.9644 7.37913C14.7116 6.12635 13.1991 5.49996 11.4269 5.49996C9.65466 5.49996 8.14216 6.12635 6.88938 7.37913C5.6366 8.6319 5.01021 10.1444 5.01021 11.9166C5.01021 13.6888 5.6366 15.2013 6.88938 16.4541C8.14216 17.7069 9.65466 18.3333 11.4269 18.3333Z" fill="#F2F2F2"/>
</svg>
