<svg width="22" height="14" viewBox="0 0 22 14" fill="none" xmlns="http://www.w3.org/2000/svg">
<g clip-path="url(#clip0_255_340)">
<path fill-rule="evenodd" clip-rule="evenodd" d="M9.75407 10.8021C10.1462 10.9305 10.565 11 11 11C12.9274 11 14.5363 9.63692 14.9155 7.8222L13.5206 8.6275C13.0116 9.41419 12.1444 9.94745 11.1498 9.99633L9.75407 10.8021ZM11.4718 4.03688C11.3181 4.01261 11.1606 4 11 4C9.72116 4 8.62918 4.80024 8.19752 5.92731L7.01904 6.6077C7.21616 4.58268 8.92328 3 11 3C11.5889 3 12.1481 3.12726 12.6515 3.35577L11.4718 4.03688Z" fill="#F2F2F2"/>
<path fill-rule="evenodd" clip-rule="evenodd" d="M6.3313 12.7782C7.67513 13.505 9.21773 14 10.9268 14C17.3535 14 21.4268 7.77778 21.4268 7C21.4268 6.73799 20.9811 5.85814 20.1389 4.80644L19.262 5.31272C19.5031 5.60642 19.7107 5.88613 19.8835 6.14027C20.0989 6.45731 20.2526 6.72342 20.3477 6.91702C20.3619 6.94573 20.3741 6.97178 20.3848 6.99519C20.374 7.01822 20.3615 7.04384 20.3472 7.07209C20.249 7.26592 20.0906 7.53254 19.8692 7.85049C19.4276 8.48483 18.7668 9.27805 17.9148 10.0511C16.2022 11.6049 13.8063 13 10.9268 13C9.64143 13 8.44885 12.6825 7.36723 12.1801L6.3313 12.7782ZM15.0674 1.96093C13.8531 1.37911 12.466 1 10.9268 1C8.00906 1 5.62133 2.55519 3.9082 4.21764C3.0592 5.04153 2.401 5.86831 1.95553 6.4892C1.81946 6.67884 1.70384 6.84845 1.60926 6.99187C1.70755 7.13693 1.82787 7.30896 1.96942 7.50156C2.25873 7.89522 2.63411 8.37134 3.08838 8.87704L2.20427 9.38748C1.05389 8.07776 0.426758 7 0.426758 7C0.426758 7 4.35351 0 10.9268 0C12.9001 0 14.635 0.560792 16.0967 1.36671L15.0674 1.96093ZM20.4446 6.84853C20.4448 6.84835 20.4439 6.85178 20.4415 6.85915C20.4432 6.85236 20.4444 6.84871 20.4446 6.84853ZM20.44 7.13235C20.4421 7.13917 20.4429 7.14236 20.4427 7.14225C20.4425 7.14213 20.4415 7.13873 20.44 7.13235Z" fill="#F2F2F2"/>
<line x1="21.6392" y1="0.877227" x2="0.249912" y2="13.2263" stroke="#F2F2F2"/>
</g>
<defs>
<clipPath id="clip0_255_340">
<rect width="21.4268" height="14" fill="white"/>
</clipPath>
</defs>
</svg>
