<svg width="28" height="22" viewBox="0 0 28 22" fill="none" xmlns="http://www.w3.org/2000/svg">
<path fill-rule="evenodd" clip-rule="evenodd" d="M12.7541 14.8021C13.1462 14.9305 13.565 15 14 15C15.9274 15 17.5363 13.6369 17.9155 11.8222L16.5206 12.6275C16.0116 13.4142 15.1444 13.9474 14.1498 13.9963L12.7541 14.8021ZM14.4718 8.03688C14.3181 8.01261 14.1606 8 14 8C12.7212 8 11.6292 8.80024 11.1975 9.92731L10.019 10.6077C10.2162 8.58268 11.9233 7 14 7C14.5889 7 15.1481 7.12726 15.6515 7.35577L14.4718 8.03688Z" fill="#F2F2F2"/>
<path fill-rule="evenodd" clip-rule="evenodd" d="M9.3313 16.7782C10.6751 17.505 12.2177 18 13.9268 18C20.3535 18 24.4268 11.7778 24.4268 11C24.4268 10.738 23.9811 9.85814 23.1389 8.80644L22.262 9.31272C22.5031 9.60642 22.7107 9.88613 22.8835 10.1403C23.0989 10.4573 23.2526 10.7234 23.3477 10.917C23.3619 10.9457 23.3741 10.9718 23.3848 10.9952C23.374 11.0182 23.3615 11.0438 23.3472 11.0721C23.249 11.2659 23.0906 11.5325 22.8692 11.8505C22.4276 12.4848 21.7668 13.2781 20.9148 14.0511C19.2022 15.6049 16.8063 17 13.9268 17C12.6414 17 11.4489 16.6825 10.3672 16.1801L9.3313 16.7782ZM18.0674 5.96093C16.8531 5.37911 15.466 5 13.9268 5C11.0091 5 8.62133 6.55519 6.9082 8.21764C6.0592 9.04153 5.401 9.86831 4.95553 10.4892C4.81946 10.6788 4.70384 10.8485 4.60926 10.9919C4.70755 11.1369 4.82787 11.309 4.96942 11.5016C5.25873 11.8952 5.63411 12.3713 6.08838 12.877L5.20427 13.3875C4.05389 12.0778 3.42676 11 3.42676 11C3.42676 11 7.35351 4 13.9268 4C15.9001 4 17.635 4.56079 19.0967 5.36671L18.0674 5.96093ZM23.4446 10.8485C23.4448 10.8484 23.4439 10.8518 23.4415 10.8591C23.4432 10.8524 23.4444 10.8487 23.4446 10.8485ZM23.44 11.1324C23.4421 11.1392 23.4429 11.1424 23.4427 11.1422C23.4425 11.1421 23.4415 11.1387 23.44 11.1324Z" fill="#F2F2F2"/>
<line x1="24.6392" y1="4.87723" x2="3.24991" y2="17.2263" stroke="#F2F2F2"/>
</svg>
