<svg width="22" height="14" viewBox="0 0 22 14" fill="none" xmlns="http://www.w3.org/2000/svg">
<g clip-path="url(#clip0_255_342)">
<path d="M20.9217 6.9985C20.9188 7.00852 20.9145 7.02199 20.9083 7.03925C20.8862 7.10158 20.8489 7.18809 20.7932 7.29809C20.6821 7.51729 20.5108 7.80403 20.2796 8.13618C19.8176 8.79971 19.1322 9.62167 18.2508 10.4214C16.4837 12.0247 13.9732 13.5 10.9268 13.5C7.89949 13.5 5.39299 11.8493 3.61311 10.1394C2.72785 9.28899 2.03643 8.43707 1.56652 7.79766C1.33186 7.47835 1.15323 7.21312 1.03404 7.02903C1.02666 7.01763 1.0195 7.00654 1.01258 6.99577C1.01878 6.98583 1.02517 6.97562 1.03174 6.96514C1.14713 6.78142 1.32049 6.5166 1.54927 6.19773C2.00743 5.55916 2.68466 4.70827 3.56 3.85882C5.31823 2.15259 7.8246 0.5 10.9268 0.5C14.0482 0.5 16.5582 1.97701 18.3039 3.57694C19.1753 4.37561 19.8465 5.19652 20.297 5.8592C20.5224 6.19089 20.6888 6.47738 20.7965 6.69647C20.8505 6.80638 20.8867 6.8931 20.9082 6.95582C20.9145 6.97401 20.9188 6.98811 20.9217 6.9985Z" stroke="#F2F2F2"/>
<circle cx="11" cy="7" r="3.5" stroke="#F2F2F2"/>
</g>
<defs>
<clipPath id="clip0_255_342">
<rect width="21" height="14" fill="white" transform="translate(0.426758)"/>
</clipPath>
</defs>
</svg>
