<svg width="28" height="22" viewBox="0 0 28 22" fill="none" xmlns="http://www.w3.org/2000/svg">
<path d="M23.9217 10.9985C23.9188 11.0085 23.9145 11.022 23.9083 11.0392C23.8862 11.1016 23.8489 11.1881 23.7932 11.2981C23.6821 11.5173 23.5108 11.804 23.2796 12.1362C22.8176 12.7997 22.1322 13.6217 21.2508 14.4214C19.4837 16.0247 16.9732 17.5 13.9268 17.5C10.8995 17.5 8.39299 15.8493 6.61311 14.1394C5.72785 13.289 5.03643 12.4371 4.56652 11.7977C4.33186 11.4784 4.15323 11.2131 4.03404 11.029C4.02666 11.0176 4.0195 11.0065 4.01258 10.9958C4.01878 10.9858 4.02517 10.9756 4.03174 10.9651C4.14713 10.7814 4.32049 10.5166 4.54927 10.1977C5.00743 9.55916 5.68466 8.70827 6.56 7.85882C8.31823 6.15259 10.8246 4.5 13.9268 4.5C17.0482 4.5 19.5582 5.97701 21.3039 7.57694C22.1753 8.37561 22.8465 9.19652 23.297 9.8592C23.5224 10.1909 23.6888 10.4774 23.7965 10.6965C23.8505 10.8064 23.8867 10.8931 23.9082 10.9558C23.9145 10.974 23.9188 10.9881 23.9217 10.9985Z" stroke="#F2F2F2"/>
<circle cx="14" cy="11" r="3.5" stroke="#F2F2F2"/>
</svg>
